# xmcd
#
# Track frame offsets:
#	150
#	13622
#	29140
#	49917
#	65105
#	79690
#	96952
#	111007
#	134047
#	154822
#	174122
#	188967
#	204960
#
# Disc length: 2889 seconds
#
# Revision: 0
# Processed by: cddbd v1.5.1PL0 Copyright (c) Steve Scherf et al.
# Submitted via: dBpowerAMP V4.0
#
DISCID=b40b470d
DTITLE=Donnie V - Hard Rain Fall
DYEAR=2005
DGENRE=Blues
TTITLE0=I'm Goin'
TTITLE1=Minute By Minute
TTITLE2=Home
TTITLE3=Blues In My Soul
TTITLE4=Did God Leave the Country
TTITLE5=Glory Train
TTITLE6=Hard Rain Fall
TTITLE7=You're My Rock
TTITLE8=When You're Not Here
TTITLE9=Tear Bottle Blues
TTITLE10=I Miss You So
TTITLE11=Starlight
TTITLE12=Home Up In The Sky (Bonus Track )
EXTD=Golly Gee Records\nGGR 1037
EXTT0=
EXTT1=
EXTT2=
EXTT3=
EXTT4=
EXTT5=
EXTT6=
EXTT7=
EXTT8=
EXTT9=
EXTT10=
EXTT11=
EXTT12=
PLAYORDER=
